<mxfile host="app.diagrams.net" agent="Mozilla/5.0 (Windows NT 10.0; Win64; x64) AppleWebKit/537.36 (KHTML, like Gecko) Chrome/136.0.0.0 Safari/537.36" version="27.1.1">
  <diagram name="Page-1" id="eUQ-ImKqcwBddsFqgIDB">
    <mxGraphModel dx="2691" dy="820" grid="1" gridSize="10" guides="1" tooltips="1" connect="1" arrows="1" fold="1" page="1" pageScale="1" pageWidth="827" pageHeight="1169" math="0" shadow="0">
      <root>
        <mxCell id="0" />
        <mxCell id="1" parent="0" />
        <mxCell id="g3g7f8lYrcWaZDmyIJ8C-69" style="edgeStyle=orthogonalEdgeStyle;rounded=0;orthogonalLoop=1;jettySize=auto;html=1;exitX=0.5;exitY=1;exitDx=0;exitDy=0;entryX=0;entryY=0.5;entryDx=0;entryDy=0;" edge="1" parent="1" source="g3g7f8lYrcWaZDmyIJ8C-1" target="g3g7f8lYrcWaZDmyIJ8C-62">
          <mxGeometry relative="1" as="geometry" />
        </mxCell>
        <mxCell id="g3g7f8lYrcWaZDmyIJ8C-70" style="edgeStyle=orthogonalEdgeStyle;rounded=0;orthogonalLoop=1;jettySize=auto;html=1;exitX=0;exitY=0.5;exitDx=0;exitDy=0;entryX=0.5;entryY=0;entryDx=0;entryDy=0;" edge="1" parent="1" source="g3g7f8lYrcWaZDmyIJ8C-1" target="g3g7f8lYrcWaZDmyIJ8C-57">
          <mxGeometry relative="1" as="geometry">
            <Array as="points">
              <mxPoint x="40" y="216" />
              <mxPoint x="40" y="520" />
              <mxPoint x="261" y="520" />
            </Array>
          </mxGeometry>
        </mxCell>
        <mxCell id="g3g7f8lYrcWaZDmyIJ8C-74" style="edgeStyle=orthogonalEdgeStyle;rounded=0;orthogonalLoop=1;jettySize=auto;html=1;exitX=0;exitY=0.5;exitDx=0;exitDy=0;" edge="1" parent="1" source="g3g7f8lYrcWaZDmyIJ8C-1" target="g3g7f8lYrcWaZDmyIJ8C-27">
          <mxGeometry relative="1" as="geometry">
            <Array as="points">
              <mxPoint x="79" y="200" />
              <mxPoint x="10" y="200" />
              <mxPoint x="10" y="650" />
              <mxPoint x="739" y="650" />
            </Array>
          </mxGeometry>
        </mxCell>
        <mxCell id="g3g7f8lYrcWaZDmyIJ8C-77" style="edgeStyle=orthogonalEdgeStyle;rounded=0;orthogonalLoop=1;jettySize=auto;html=1;exitX=0;exitY=0.5;exitDx=0;exitDy=0;" edge="1" parent="1" source="g3g7f8lYrcWaZDmyIJ8C-1" target="g3g7f8lYrcWaZDmyIJ8C-37">
          <mxGeometry relative="1" as="geometry">
            <Array as="points">
              <mxPoint x="79" y="190" />
              <mxPoint x="-40" y="190" />
              <mxPoint x="-40" y="890" />
              <mxPoint x="499" y="890" />
            </Array>
          </mxGeometry>
        </mxCell>
        <mxCell id="g3g7f8lYrcWaZDmyIJ8C-1" value="PERSON_ID" style="rounded=0;whiteSpace=wrap;html=1;fontStyle=5" vertex="1" parent="1">
          <mxGeometry x="79" y="196" width="120" height="40" as="geometry" />
        </mxCell>
        <mxCell id="g3g7f8lYrcWaZDmyIJ8C-2" value="PERSON_NAME" style="rounded=0;whiteSpace=wrap;html=1;" vertex="1" parent="1">
          <mxGeometry x="199" y="196" width="120" height="40" as="geometry" />
        </mxCell>
        <mxCell id="g3g7f8lYrcWaZDmyIJ8C-3" value="GENDER" style="rounded=0;whiteSpace=wrap;html=1;" vertex="1" parent="1">
          <mxGeometry x="319" y="196" width="120" height="40" as="geometry" />
        </mxCell>
        <mxCell id="g3g7f8lYrcWaZDmyIJ8C-4" value="EMAIL" style="rounded=0;whiteSpace=wrap;html=1;" vertex="1" parent="1">
          <mxGeometry x="439" y="196" width="120" height="40" as="geometry" />
        </mxCell>
        <mxCell id="g3g7f8lYrcWaZDmyIJ8C-72" style="edgeStyle=orthogonalEdgeStyle;rounded=0;orthogonalLoop=1;jettySize=auto;html=1;exitX=0.5;exitY=1;exitDx=0;exitDy=0;entryX=0.5;entryY=0;entryDx=0;entryDy=0;" edge="1" parent="1" source="g3g7f8lYrcWaZDmyIJ8C-9" target="g3g7f8lYrcWaZDmyIJ8C-58">
          <mxGeometry relative="1" as="geometry">
            <Array as="points">
              <mxPoint x="141" y="510" />
              <mxPoint x="381" y="510" />
            </Array>
          </mxGeometry>
        </mxCell>
        <mxCell id="g3g7f8lYrcWaZDmyIJ8C-75" style="edgeStyle=orthogonalEdgeStyle;rounded=0;orthogonalLoop=1;jettySize=auto;html=1;exitX=0.75;exitY=1;exitDx=0;exitDy=0;" edge="1" parent="1" source="g3g7f8lYrcWaZDmyIJ8C-9" target="g3g7f8lYrcWaZDmyIJ8C-28">
          <mxGeometry relative="1" as="geometry">
            <Array as="points">
              <mxPoint x="171" y="500" />
              <mxPoint x="859" y="500" />
            </Array>
          </mxGeometry>
        </mxCell>
        <mxCell id="g3g7f8lYrcWaZDmyIJ8C-78" style="edgeStyle=orthogonalEdgeStyle;rounded=0;orthogonalLoop=1;jettySize=auto;html=1;exitX=0;exitY=0.5;exitDx=0;exitDy=0;entryX=0.5;entryY=0;entryDx=0;entryDy=0;" edge="1" parent="1" source="g3g7f8lYrcWaZDmyIJ8C-9" target="g3g7f8lYrcWaZDmyIJ8C-38">
          <mxGeometry relative="1" as="geometry">
            <Array as="points">
              <mxPoint x="60" y="461" />
              <mxPoint x="60" y="870" />
              <mxPoint x="619" y="870" />
            </Array>
          </mxGeometry>
        </mxCell>
        <mxCell id="g3g7f8lYrcWaZDmyIJ8C-89" style="edgeStyle=orthogonalEdgeStyle;rounded=0;orthogonalLoop=1;jettySize=auto;html=1;exitX=0;exitY=0.25;exitDx=0;exitDy=0;entryX=0.5;entryY=0;entryDx=0;entryDy=0;" edge="1" parent="1" source="g3g7f8lYrcWaZDmyIJ8C-9" target="g3g7f8lYrcWaZDmyIJ8C-82">
          <mxGeometry relative="1" as="geometry">
            <Array as="points">
              <mxPoint x="-10" y="451" />
              <mxPoint x="-10" y="1220" />
              <mxPoint x="385" y="1220" />
            </Array>
          </mxGeometry>
        </mxCell>
        <mxCell id="g3g7f8lYrcWaZDmyIJ8C-9" value="EVENT_ID" style="rounded=0;whiteSpace=wrap;html=1;fontStyle=5" vertex="1" parent="1">
          <mxGeometry x="80.5" y="441" width="120" height="40" as="geometry" />
        </mxCell>
        <mxCell id="g3g7f8lYrcWaZDmyIJ8C-10" value="EVENT_NAME" style="rounded=0;whiteSpace=wrap;html=1;" vertex="1" parent="1">
          <mxGeometry x="200.5" y="441" width="120" height="40" as="geometry" />
        </mxCell>
        <mxCell id="g3g7f8lYrcWaZDmyIJ8C-11" value="EVENT_DATE" style="rounded=0;whiteSpace=wrap;html=1;" vertex="1" parent="1">
          <mxGeometry x="320.5" y="441" width="120" height="40" as="geometry" />
        </mxCell>
        <mxCell id="g3g7f8lYrcWaZDmyIJ8C-12" value="EVENT_TIME" style="rounded=0;whiteSpace=wrap;html=1;" vertex="1" parent="1">
          <mxGeometry x="440.5" y="441" width="120" height="40" as="geometry" />
        </mxCell>
        <mxCell id="g3g7f8lYrcWaZDmyIJ8C-13" value="VENUE" style="rounded=0;whiteSpace=wrap;html=1;" vertex="1" parent="1">
          <mxGeometry x="560.5" y="441" width="120" height="40" as="geometry" />
        </mxCell>
        <mxCell id="g3g7f8lYrcWaZDmyIJ8C-14" value="ORG_ID" style="rounded=0;whiteSpace=wrap;html=1;fontStyle=5" vertex="1" parent="1">
          <mxGeometry x="79" y="1048" width="120" height="40" as="geometry" />
        </mxCell>
        <mxCell id="g3g7f8lYrcWaZDmyIJ8C-15" value="ORG_NAME" style="rounded=0;whiteSpace=wrap;html=1;" vertex="1" parent="1">
          <mxGeometry x="199" y="1048" width="120" height="40" as="geometry" />
        </mxCell>
        <mxCell id="g3g7f8lYrcWaZDmyIJ8C-16" value="ORG_CONTACT" style="rounded=0;whiteSpace=wrap;html=1;" vertex="1" parent="1">
          <mxGeometry x="319" y="1048" width="120" height="40" as="geometry" />
        </mxCell>
        <mxCell id="g3g7f8lYrcWaZDmyIJ8C-87" style="edgeStyle=orthogonalEdgeStyle;rounded=0;orthogonalLoop=1;jettySize=auto;html=1;exitX=0.5;exitY=1;exitDx=0;exitDy=0;entryX=0.5;entryY=0;entryDx=0;entryDy=0;" edge="1" parent="1" source="g3g7f8lYrcWaZDmyIJ8C-18" target="g3g7f8lYrcWaZDmyIJ8C-81">
          <mxGeometry relative="1" as="geometry" />
        </mxCell>
        <mxCell id="g3g7f8lYrcWaZDmyIJ8C-18" value="SPON_ID" style="rounded=0;whiteSpace=wrap;html=1;fontStyle=5" vertex="1" parent="1">
          <mxGeometry x="79" y="1159" width="120" height="40" as="geometry" />
        </mxCell>
        <mxCell id="g3g7f8lYrcWaZDmyIJ8C-19" value="SPON_NAME" style="rounded=0;whiteSpace=wrap;html=1;" vertex="1" parent="1">
          <mxGeometry x="199" y="1159" width="120" height="40" as="geometry" />
        </mxCell>
        <mxCell id="g3g7f8lYrcWaZDmyIJ8C-20" value="SPON_CONTACT" style="rounded=0;whiteSpace=wrap;html=1;" vertex="1" parent="1">
          <mxGeometry x="319" y="1159" width="120" height="40" as="geometry" />
        </mxCell>
        <mxCell id="g3g7f8lYrcWaZDmyIJ8C-76" style="edgeStyle=orthogonalEdgeStyle;rounded=0;orthogonalLoop=1;jettySize=auto;html=1;exitX=0.5;exitY=1;exitDx=0;exitDy=0;" edge="1" parent="1" source="g3g7f8lYrcWaZDmyIJ8C-22" target="g3g7f8lYrcWaZDmyIJ8C-33">
          <mxGeometry relative="1" as="geometry" />
        </mxCell>
        <mxCell id="g3g7f8lYrcWaZDmyIJ8C-22" value="TICKET_ID" style="rounded=0;whiteSpace=wrap;html=1;fontStyle=5" vertex="1" parent="1">
          <mxGeometry x="79" y="680" width="120" height="40" as="geometry" />
        </mxCell>
        <mxCell id="g3g7f8lYrcWaZDmyIJ8C-23" value="PRICE" style="rounded=0;whiteSpace=wrap;html=1;" vertex="1" parent="1">
          <mxGeometry x="199" y="680" width="120" height="40" as="geometry" />
        </mxCell>
        <mxCell id="g3g7f8lYrcWaZDmyIJ8C-24" value="SEAT_NO" style="rounded=0;whiteSpace=wrap;html=1;" vertex="1" parent="1">
          <mxGeometry x="319" y="680" width="120" height="40" as="geometry" />
        </mxCell>
        <mxCell id="g3g7f8lYrcWaZDmyIJ8C-25" value="STATUS" style="rounded=0;whiteSpace=wrap;html=1;" vertex="1" parent="1">
          <mxGeometry x="439" y="680" width="120" height="40" as="geometry" />
        </mxCell>
        <mxCell id="g3g7f8lYrcWaZDmyIJ8C-26" value="TICKET_TYPE" style="rounded=0;whiteSpace=wrap;html=1;" vertex="1" parent="1">
          <mxGeometry x="559" y="680" width="120" height="40" as="geometry" />
        </mxCell>
        <mxCell id="g3g7f8lYrcWaZDmyIJ8C-27" value="PERSON_ID" style="rounded=0;whiteSpace=wrap;html=1;" vertex="1" parent="1">
          <mxGeometry x="679" y="680" width="120" height="40" as="geometry" />
        </mxCell>
        <mxCell id="g3g7f8lYrcWaZDmyIJ8C-28" value="EVENT_ID" style="rounded=0;whiteSpace=wrap;html=1;" vertex="1" parent="1">
          <mxGeometry x="799" y="680" width="120" height="40" as="geometry" />
        </mxCell>
        <mxCell id="g3g7f8lYrcWaZDmyIJ8C-29" value="PAYMENT_ID" style="rounded=0;whiteSpace=wrap;html=1;fontStyle=5" vertex="1" parent="1">
          <mxGeometry x="79" y="802" width="120" height="40" as="geometry" />
        </mxCell>
        <mxCell id="g3g7f8lYrcWaZDmyIJ8C-30" value="PAY_METHOD" style="rounded=0;whiteSpace=wrap;html=1;" vertex="1" parent="1">
          <mxGeometry x="199" y="802" width="120" height="40" as="geometry" />
        </mxCell>
        <mxCell id="g3g7f8lYrcWaZDmyIJ8C-31" value="AMOUNT" style="rounded=0;whiteSpace=wrap;html=1;" vertex="1" parent="1">
          <mxGeometry x="319" y="802" width="120" height="40" as="geometry" />
        </mxCell>
        <mxCell id="g3g7f8lYrcWaZDmyIJ8C-32" value="PAY_DAY" style="rounded=0;whiteSpace=wrap;html=1;" vertex="1" parent="1">
          <mxGeometry x="439" y="802" width="120" height="40" as="geometry" />
        </mxCell>
        <mxCell id="g3g7f8lYrcWaZDmyIJ8C-33" value="TICKET_ID" style="rounded=0;whiteSpace=wrap;html=1;" vertex="1" parent="1">
          <mxGeometry x="559" y="802" width="120" height="40" as="geometry" />
        </mxCell>
        <mxCell id="g3g7f8lYrcWaZDmyIJ8C-34" value="FEEDBACK_ID" style="rounded=0;whiteSpace=wrap;html=1;fontStyle=5" vertex="1" parent="1">
          <mxGeometry x="79" y="925" width="120" height="40" as="geometry" />
        </mxCell>
        <mxCell id="g3g7f8lYrcWaZDmyIJ8C-35" value="COMMENT" style="rounded=0;whiteSpace=wrap;html=1;" vertex="1" parent="1">
          <mxGeometry x="199" y="925" width="120" height="40" as="geometry" />
        </mxCell>
        <mxCell id="g3g7f8lYrcWaZDmyIJ8C-36" value="RAITING" style="rounded=0;whiteSpace=wrap;html=1;" vertex="1" parent="1">
          <mxGeometry x="319" y="925" width="120" height="40" as="geometry" />
        </mxCell>
        <mxCell id="g3g7f8lYrcWaZDmyIJ8C-37" value="PERSON_ID" style="rounded=0;whiteSpace=wrap;html=1;" vertex="1" parent="1">
          <mxGeometry x="439" y="925" width="120" height="40" as="geometry" />
        </mxCell>
        <mxCell id="g3g7f8lYrcWaZDmyIJ8C-38" value="EVENT_ID" style="rounded=0;whiteSpace=wrap;html=1;" vertex="1" parent="1">
          <mxGeometry x="559" y="925" width="120" height="40" as="geometry" />
        </mxCell>
        <mxCell id="g3g7f8lYrcWaZDmyIJ8C-39" value="PERSON" style="text;html=1;align=center;verticalAlign=middle;whiteSpace=wrap;rounded=0;fontStyle=1" vertex="1" parent="1">
          <mxGeometry x="73" y="167" width="60" height="30" as="geometry" />
        </mxCell>
        <mxCell id="g3g7f8lYrcWaZDmyIJ8C-41" value="TICKET" style="text;html=1;align=center;verticalAlign=middle;whiteSpace=wrap;rounded=0;fontStyle=1" vertex="1" parent="1">
          <mxGeometry x="27.5" y="650" width="151" height="30" as="geometry" />
        </mxCell>
        <mxCell id="g3g7f8lYrcWaZDmyIJ8C-42" value="PAYMENT" style="text;html=1;align=center;verticalAlign=middle;whiteSpace=wrap;rounded=0;fontStyle=1" vertex="1" parent="1">
          <mxGeometry x="32" y="775" width="151" height="30" as="geometry" />
        </mxCell>
        <mxCell id="g3g7f8lYrcWaZDmyIJ8C-43" value="FEEDBACK" style="text;html=1;align=center;verticalAlign=middle;whiteSpace=wrap;rounded=0;fontStyle=1" vertex="1" parent="1">
          <mxGeometry x="37" y="897" width="151" height="30" as="geometry" />
        </mxCell>
        <mxCell id="g3g7f8lYrcWaZDmyIJ8C-44" value="ORGANIZER" style="text;html=1;align=center;verticalAlign=middle;whiteSpace=wrap;rounded=0;fontStyle=1" vertex="1" parent="1">
          <mxGeometry x="40" y="1019" width="151" height="30" as="geometry" />
        </mxCell>
        <mxCell id="g3g7f8lYrcWaZDmyIJ8C-45" value="SPONSOR" style="text;html=1;align=center;verticalAlign=middle;whiteSpace=wrap;rounded=0;fontStyle=1" vertex="1" parent="1">
          <mxGeometry x="32" y="1133" width="151" height="30" as="geometry" />
        </mxCell>
        <mxCell id="g3g7f8lYrcWaZDmyIJ8C-46" value="EVENT" style="text;html=1;align=center;verticalAlign=middle;whiteSpace=wrap;rounded=0;fontStyle=1" vertex="1" parent="1">
          <mxGeometry x="32" y="411" width="151" height="30" as="geometry" />
        </mxCell>
        <mxCell id="g3g7f8lYrcWaZDmyIJ8C-56" value="REG_ID" style="rounded=0;whiteSpace=wrap;html=1;fontStyle=5" vertex="1" parent="1">
          <mxGeometry x="80.5" y="559" width="120" height="40" as="geometry" />
        </mxCell>
        <mxCell id="g3g7f8lYrcWaZDmyIJ8C-57" value="PERSON_ID" style="rounded=0;whiteSpace=wrap;html=1;" vertex="1" parent="1">
          <mxGeometry x="200.5" y="559" width="120" height="40" as="geometry" />
        </mxCell>
        <mxCell id="g3g7f8lYrcWaZDmyIJ8C-58" value="EVENT_ID" style="rounded=0;whiteSpace=wrap;html=1;" vertex="1" parent="1">
          <mxGeometry x="320.5" y="559" width="120" height="40" as="geometry" />
        </mxCell>
        <mxCell id="g3g7f8lYrcWaZDmyIJ8C-59" value="REG_DATE" style="rounded=0;whiteSpace=wrap;html=1;" vertex="1" parent="1">
          <mxGeometry x="440.5" y="559" width="120" height="40" as="geometry" />
        </mxCell>
        <mxCell id="g3g7f8lYrcWaZDmyIJ8C-61" value="REGISTRATION" style="text;html=1;align=center;verticalAlign=middle;whiteSpace=wrap;rounded=0;fontStyle=1" vertex="1" parent="1">
          <mxGeometry x="94.5" y="530" width="60" height="30" as="geometry" />
        </mxCell>
        <mxCell id="g3g7f8lYrcWaZDmyIJ8C-62" value="PERSON_ID" style="rounded=0;whiteSpace=wrap;html=1;" vertex="1" parent="1">
          <mxGeometry x="80" y="319" width="120" height="40" as="geometry" />
        </mxCell>
        <mxCell id="g3g7f8lYrcWaZDmyIJ8C-63" value="CONTACT" style="rounded=0;whiteSpace=wrap;html=1;" vertex="1" parent="1">
          <mxGeometry x="199" y="319" width="120" height="40" as="geometry" />
        </mxCell>
        <mxCell id="g3g7f8lYrcWaZDmyIJ8C-64" value="PERSON - CONTACT" style="text;html=1;align=center;verticalAlign=middle;whiteSpace=wrap;rounded=0;fontStyle=1" vertex="1" parent="1">
          <mxGeometry x="65.5" y="289" width="150" height="30" as="geometry" />
        </mxCell>
        <mxCell id="g3g7f8lYrcWaZDmyIJ8C-80" value="S_ID" style="rounded=0;whiteSpace=wrap;html=1;fontStyle=5" vertex="1" parent="1">
          <mxGeometry x="79" y="1276" width="120" height="40" as="geometry" />
        </mxCell>
        <mxCell id="g3g7f8lYrcWaZDmyIJ8C-81" value="SPON_ID" style="rounded=0;whiteSpace=wrap;html=1;" vertex="1" parent="1">
          <mxGeometry x="199" y="1276" width="126" height="40" as="geometry" />
        </mxCell>
        <mxCell id="g3g7f8lYrcWaZDmyIJ8C-82" value="EVENT_ID" style="rounded=0;whiteSpace=wrap;html=1;" vertex="1" parent="1">
          <mxGeometry x="325" y="1276" width="120" height="40" as="geometry" />
        </mxCell>
        <mxCell id="g3g7f8lYrcWaZDmyIJ8C-83" value="S_AMOUNT" style="rounded=0;whiteSpace=wrap;html=1;" vertex="1" parent="1">
          <mxGeometry x="445" y="1276" width="120" height="40" as="geometry" />
        </mxCell>
        <mxCell id="g3g7f8lYrcWaZDmyIJ8C-85" value="SPONSORSHIP" style="text;html=1;align=center;verticalAlign=middle;whiteSpace=wrap;rounded=0;fontStyle=1" vertex="1" parent="1">
          <mxGeometry x="46" y="1247" width="151" height="30" as="geometry" />
        </mxCell>
      </root>
    </mxGraphModel>
  </diagram>
</mxfile>
